<svg width="40" height="40" fill="none" xmlns="http://www.w3.org/2000/svg"><path fill-rule="evenodd" clip-rule="evenodd" d="M20 36.667c9.205 0 16.667-7.462 16.667-16.667 0-9.205-7.462-16.667-16.667-16.667-9.205 0-16.667 7.462-16.667 16.667 0 9.205 7.462 16.667 16.667 16.667ZM15.824 24.06a1.25 1.25 0 0 0-1.655 1.874l.459.352c.27.189.659.431 1.155.672a9.65 9.65 0 0 0 4.217.959 9.65 9.65 0 0 0 4.217-.959c.496-.24.885-.483 1.155-.671.136-.095.242-.176.319-.237l.14-.116a1.25 1.25 0 0 0-1.655-1.874l-.232.174a6.109 6.109 0 0 1-.817.474 7.15 7.15 0 0 1-3.127.709 7.15 7.15 0 0 1-3.127-.709 6.109 6.109 0 0 1-.817-.474l-.232-.174Zm12.51-7.393a1.667 1.667 0 1 1-3.334 0 1.667 1.667 0 0 1 3.333 0Zm-15 1.666a1.667 1.667 0 1 0 0-3.333 1.667 1.667 0 0 0 0 3.333Z" fill="#fff"/></svg>