<svg width="36" height="36" fill="none" xmlns="http://www.w3.org/2000/svg"><path fill-rule="evenodd" clip-rule="evenodd" d="M16.155 3.415a4.125 4.125 0 0 1 3.69 0L30.82 8.902c1.935.968 1.935 3.729 0 4.696l-10.975 5.487a4.125 4.125 0 0 1-3.69 0L5.18 13.598c-1.935-.968-1.935-3.728 0-4.696l10.975-5.487ZM3.472 25.793a1.125 1.125 0 0 1 1.485-.571l12.281 5.458a1.876 1.876 0 0 0 1.523 0l12.282-5.458a1.125 1.125 0 1 1 .914 2.056l-12.282 5.458a4.124 4.124 0 0 1-3.35 0L4.043 27.278a1.125 1.125 0 0 1-.571-1.485Zm1.485-7.321a1.125 1.125 0 1 0-.914 2.056l12.282 5.458a4.124 4.124 0 0 0 3.35 0l12.282-5.458a1.125 1.125 0 0 0-.914-2.056L18.761 23.93a1.876 1.876 0 0 1-1.523 0L4.957 18.472Z" fill="#FD0000"/></svg>