<svg width="36" height="36" fill="none" xmlns="http://www.w3.org/2000/svg"><path fill-rule="evenodd" clip-rule="evenodd" d="M4.125 18c0-7.663 6.212-13.875 13.875-13.875 7.624 0 13.812 6.149 13.875 13.758a1.125 1.125 0 0 0 2.25-.019C34.05 9.021 26.86 1.875 18 1.875 9.094 1.875 1.875 9.095 1.875 18c0 8.86 7.146 16.051 15.989 16.124a1.125 1.125 0 1 0 .019-2.25C10.273 31.813 4.125 25.625 4.125 18ZM18 11.625a6.375 6.375 0 0 0-2.386 12.289A1.125 1.125 0 0 1 14.77 26 8.627 8.627 0 0 1 18 9.375a8.627 8.627 0 0 1 8 5.396 1.125 1.125 0 1 1-2.086.843A6.377 6.377 0 0 0 18 11.625Zm4.005 20.267-3.92-11.757c-.421-1.266.784-2.471 2.05-2.05l11.757 3.92c1.477.492 1.477 2.582 0 3.074l-4.341 1.447a1.62 1.62 0 0 0-1.025 1.025l-1.447 4.341c-.492 1.477-2.582 1.477-3.074 0Z" fill="#FD0000"/></svg>