<svg width="330" height="59" fill="none" xmlns="http://www.w3.org/2000/svg"><path d="M95.198 23v-2.304c.768.108 1.332-.048 1.692-.468.36-.432.54-1.224.54-2.376V10.4h8.568V23h-2.466V12.776h-3.636v5.004c0 2.172-.498 3.642-1.494 4.41-.852.672-1.92.942-3.204.81Zm23.738-1.638c-1.272 1.26-2.82 1.89-4.644 1.89-1.824 0-3.372-.63-4.644-1.89-1.26-1.284-1.89-2.838-1.89-4.662 0-1.836.63-3.384 1.89-4.644 1.272-1.272 2.82-1.908 4.644-1.908 1.824 0 3.372.636 4.644 1.908 1.272 1.26 1.908 2.808 1.908 4.644 0 1.836-.636 3.39-1.908 4.662Zm-7.542-1.692c.768.768 1.734 1.152 2.898 1.152 1.164 0 2.13-.384 2.898-1.152.78-.78 1.17-1.77 1.17-2.97 0-1.2-.39-2.19-1.17-2.97-.78-.78-1.746-1.17-2.898-1.17-1.152 0-2.118.39-2.898 1.17-.78.78-1.17 1.77-1.17 2.97 0 1.2.39 2.19 1.17 2.97Zm11.196-9.27h7.164v2.376h-4.68V23h-2.484V10.4ZM140.907 23h-2.484v-7.686l-5.4 7.686h-1.89V10.4h2.484v7.704l5.4-7.704h1.89V23Zm8.313.252c-1.884 0-3.45-.63-4.698-1.89-1.236-1.248-1.854-2.802-1.854-4.662 0-1.872.618-3.426 1.854-4.662 1.248-1.26 2.814-1.89 4.698-1.89 1.14 0 2.19.27 3.15.81.972.528 1.728 1.248 2.268 2.16l-2.142 1.242a3.267 3.267 0 0 0-1.332-1.314c-.576-.324-1.224-.486-1.944-.486-1.224 0-2.214.384-2.97 1.152-.744.78-1.116 1.776-1.116 2.988 0 1.2.372 2.19 1.116 2.97.756.768 1.746 1.152 2.97 1.152.72 0 1.368-.156 1.944-.468a3.268 3.268 0 0 0 1.332-1.314l2.142 1.242c-.54.912-1.296 1.638-2.268 2.178-.96.528-2.01.792-3.15.792Zm5.955-12.852h9.27v2.376h-3.402V23h-2.484V12.776h-3.384V10.4ZM175.606 23h-2.484v-7.686l-5.4 7.686h-1.89V10.4h2.484v7.704l5.4-7.704h1.89V23Zm8.907-7.02V10.4h2.484V23h-2.484v-4.608a6.279 6.279 0 0 1-2.466.486c-1.26 0-2.31-.354-3.15-1.062-.816-.72-1.224-1.692-1.224-2.916v-4.5h2.484v4.176c0 .6.174 1.074.522 1.422.36.336.834.504 1.422.504a5.7 5.7 0 0 0 2.412-.522Zm7.305 1.818v2.826h5.31V23h-7.794V10.4h7.704v2.376h-5.22v2.682h4.77v2.34h-4.77Zm12.949 5.454c-1.884 0-3.45-.63-4.698-1.89-1.236-1.248-1.854-2.802-1.854-4.662 0-1.872.618-3.426 1.854-4.662 1.248-1.26 2.814-1.89 4.698-1.89 1.14 0 2.19.27 3.15.81.972.528 1.728 1.248 2.268 2.16l-2.142 1.242a3.267 3.267 0 0 0-1.332-1.314c-.576-.324-1.224-.486-1.944-.486-1.224 0-2.214.384-2.97 1.152-.744.78-1.116 1.776-1.116 2.988 0 1.2.372 2.19 1.116 2.97.756.768 1.746 1.152 2.97 1.152.72 0 1.368-.156 1.944-.468a3.268 3.268 0 0 0 1.332-1.314l2.142 1.242c-.54.912-1.296 1.638-2.268 2.178-.96.528-2.01.792-3.15.792Zm11.948-6.732 4.842 6.48h-2.862l-4.5-5.904V23h-2.484V10.4h2.484v5.562l4.32-5.562h2.862l-4.662 6.12ZM232.559 23h-2.484v-7.686l-5.4 7.686h-1.89V10.4h2.484v7.704l5.4-7.704h1.89V23Zm4.822-5.202v2.826h5.31V23h-7.794V10.4h7.704v2.376h-5.22v2.682h4.77v2.34h-4.77Z" fill="#000"/><path d="M248.941 10.4h4.698c1.2 0 2.22.408 3.06 1.224.828.816 1.242 1.818 1.242 3.006 0 1.188-.414 2.19-1.242 3.006-.84.816-1.86 1.224-3.06 1.224h-2.214V23h-2.484V10.4Zm2.484 6.138h2.214c.528 0 .966-.18 1.314-.54.348-.372.522-.828.522-1.368 0-.552-.174-1.008-.522-1.368-.348-.36-.786-.54-1.314-.54h-2.214v3.816Zm10.618 1.26v2.826h5.31V23h-7.794V10.4h7.704v2.376h-5.22v2.682h4.77v2.34h-4.77Zm19.211 2.826V10.4h2.484V23h-14.634V10.4h2.484v10.224h3.6V10.4h2.466v10.224h3.6Zm7.314-2.826v2.826h5.31V23h-7.794V10.4h7.704v2.376h-5.22v2.682h4.77v2.34h-4.77Zm14.225-2.394V10.4h2.466V23h-2.466v-5.22h-4.68V23h-2.484V10.4h2.484v5.004h4.68ZM317.374 23h-2.484v-7.686L309.49 23h-1.89V10.4h2.484v7.704l5.4-7.704h1.89V23Zm6.189-12.6h5.04V23h-2.484v-4.374h-1.422L321.799 23h-2.79l3.078-4.644a4.063 4.063 0 0 1-1.962-1.476 3.84 3.84 0 0 1-.756-2.304c0-1.152.408-2.136 1.224-2.952.816-.816 1.806-1.224 2.97-1.224Zm0 6.048h2.556v-3.726h-2.556c-.468 0-.87.18-1.206.54-.336.36-.504.798-.504 1.314s.168.96.504 1.332c.336.36.738.54 1.206.54Z" fill="#FD0000"/><path d="M97.912 38.32 102.41 43h-1.196l-4.264-4.407V43h-.91v-9.1h.91v4.16l4.134-4.16h1.196l-4.368 4.42Zm6.397 3.185 3.874-5.005h.728V43h-.858v-5.005L104.179 43h-.728v-6.5h.858v5.005Zm5.636-5.005h5.46v.832h-2.301V43h-.858v-5.668h-2.301V36.5Zm11.842 1.274V36.5h.858V43h-.858v-1.274c-.598.953-1.473 1.43-2.626 1.43-.927 0-1.72-.33-2.379-.988-.65-.659-.975-1.465-.975-2.418 0-.953.325-1.76.975-2.418a3.244 3.244 0 0 1 2.379-.988c1.153 0 2.028.477 2.626 1.43Zm-4.381 3.809c.494.494 1.101.741 1.82.741.719 0 1.326-.247 1.82-.741a2.546 2.546 0 0 0 .741-1.833c0-.72-.247-1.326-.741-1.82-.494-.503-1.101-.754-1.82-.754-.719 0-1.326.251-1.82.754-.494.494-.741 1.1-.741 1.82 0 .71.247 1.322.741 1.833Zm11.476-6.123h-3.38v-.754h3.38v.754Zm-3.562 6.045 3.874-5.005h.728V43h-.858v-5.005L125.19 43h-.728v-6.5h.858v5.005Zm14.476-2.106h-4.68v-.832h4.68v.832Zm9.523-1.105c.503.19.893.481 1.17.871.277.39.416.85.416 1.378 0 .763-.286 1.391-.858 1.885-.563.485-1.326.728-2.288.728-.832 0-1.512-.186-2.041-.559a2.976 2.976 0 0 1-1.118-1.495l.78-.442c.121.494.377.893.767 1.196.39.295.927.442 1.612.442.693 0 1.239-.16 1.638-.481.399-.32.598-.745.598-1.274s-.182-.953-.546-1.274c-.364-.32-.858-.481-1.482-.481h-1.04v-.858h.715c.615 0 1.105-.152 1.469-.455.364-.312.546-.72.546-1.222 0-.494-.178-.893-.533-1.196-.355-.303-.832-.455-1.43-.455-1.118 0-1.855.477-2.21 1.43l-.754-.442c.503-1.23 1.491-1.846 2.964-1.846.849 0 1.543.243 2.08.728.529.477.793 1.075.793 1.794 0 .91-.416 1.586-1.248 2.028Zm8.612-.52V36.5h.858V43h-.858v-1.274c-.598.953-1.474 1.43-2.626 1.43a3.24 3.24 0 0 1-2.379-.988c-.65-.659-.975-1.465-.975-2.418 0-.953.325-1.76.975-2.418a3.24 3.24 0 0 1 2.379-.988c1.152 0 2.028.477 2.626 1.43Zm-4.381 3.809c.494.494 1.1.741 1.82.741.719 0 1.326-.247 1.82-.741a2.546 2.546 0 0 0 .741-1.833c0-.72-.247-1.326-.741-1.82-.494-.503-1.101-.754-1.82-.754-.72 0-1.326.251-1.82.754-.494.494-.741 1.1-.741 1.82 0 .71.247 1.322.741 1.833Zm9.941 1.573c-.927 0-1.707-.308-2.34-.923-.624-.624-.936-1.43-.936-2.418 0-1.11.165-1.959.494-2.548.33-.598.997-1.14 2.002-1.625.321-.147.572-.26.754-.338a9.65 9.65 0 0 0 .715-.312c.754-.347 1.136-.776 1.144-1.287l.676.39a2.003 2.003 0 0 1-.208.585c-.112.19-.225.342-.338.455a2.121 2.121 0 0 1-.494.364 8.919 8.919 0 0 1-.533.286l-.65.273-.611.26c-.598.26-1.044.533-1.339.819-.286.277-.489.641-.611 1.092a2.596 2.596 0 0 1 1.092-.845 3.35 3.35 0 0 1 1.365-.299c.867 0 1.582.286 2.145.858.572.563.858 1.287.858 2.171 0 .875-.303 1.603-.91 2.184-.598.572-1.356.858-2.275.858Zm-1.69-1.495c.451.425 1.014.637 1.69.637.676 0 1.231-.204 1.664-.611.442-.416.663-.94.663-1.573 0-.641-.208-1.166-.624-1.573-.407-.416-.953-.624-1.638-.624-.615 0-1.174.195-1.677.585-.502.373-.754.884-.754 1.534 0 .659.226 1.2.676 1.625Zm11.77-3.887V36.5h.858V43h-.858v-1.274c-.598.953-1.473 1.43-2.626 1.43-.927 0-1.72-.33-2.379-.988-.65-.659-.975-1.465-.975-2.418 0-.953.325-1.76.975-2.418a3.244 3.244 0 0 1 2.379-.988c1.153 0 2.028.477 2.626 1.43Zm-4.381 3.809c.494.494 1.101.741 1.82.741.72 0 1.326-.247 1.82-.741a2.546 2.546 0 0 0 .741-1.833c0-.72-.247-1.326-.741-1.82-.494-.503-1.1-.754-1.82-.754-.719 0-1.326.251-1.82.754-.494.494-.741 1.1-.741 1.82 0 .71.247 1.322.741 1.833Zm11.476-6.123h-3.38v-.754h3.38v.754Zm-3.562 6.045 3.874-5.005h.728V43h-.858v-5.005L176.974 43h-.728v-6.5h.858v5.005Zm8.184-1.885 3.484 3.38h-1.144l-3.25-3.133V43h-.858v-6.5h.858v2.873l3.094-2.873h1.17l-3.354 3.12Zm9.599-1.846V36.5h.858V43h-.858v-1.274c-.598.953-1.474 1.43-2.626 1.43a3.24 3.24 0 0 1-2.379-.988c-.65-.659-.975-1.465-.975-2.418 0-.953.325-1.76.975-2.418a3.24 3.24 0 0 1 2.379-.988c1.152 0 2.028.477 2.626 1.43Zm-4.381 3.809c.494.494 1.1.741 1.82.741.719 0 1.326-.247 1.82-.741a2.546 2.546 0 0 0 .741-1.833c0-.72-.247-1.326-.741-1.82-.494-.503-1.101-.754-1.82-.754-.72 0-1.326.251-1.82.754-.494.494-.741 1.1-.741 1.82 0 .71.247 1.322.741 1.833Zm7.731-5.083h4.654V43h-.858v-5.668h-2.938v2.899c0 1.083-.208 1.829-.624 2.236-.407.407-.97.585-1.69.533v-.806c.503.052.871-.07 1.105-.364.234-.295.351-.828.351-1.599V36.5Zm7.33 2.47h1.781c.598 0 1.109.19 1.534.572.424.373.637.854.637 1.443 0 .598-.213 1.083-.637 1.456-.408.373-.919.559-1.534.559h-2.639v-6.5h.858v2.47Zm0 3.198h1.781c.372 0 .684-.108.936-.325.251-.225.377-.511.377-.858s-.126-.628-.377-.845a1.354 1.354 0 0 0-.936-.338h-1.781v2.366Zm8.214.988c-.98 0-1.794-.325-2.444-.975-.65-.667-.975-1.478-.975-2.431 0-.962.325-1.768.975-2.418.65-.659 1.464-.988 2.444-.988.641 0 1.217.156 1.729.468.511.303.884.715 1.118 1.235l-.702.403a1.98 1.98 0 0 0-.845-.923 2.438 2.438 0 0 0-1.3-.351c-.72 0-1.326.251-1.82.754-.494.494-.741 1.1-.741 1.82 0 .71.247 1.322.741 1.833.494.494 1.1.741 1.82.741.476 0 .905-.113 1.287-.338.39-.225.693-.537.91-.936l.715.416c-.269.52-.663.932-1.183 1.235a3.37 3.37 0 0 1-1.729.455Zm5.912-3.536 3.484 3.38h-1.144l-3.25-3.133V43h-.858v-6.5h.858v2.873l3.094-2.873h1.17l-3.354 3.12Zm5.513 1.885 3.874-5.005h.728V43h-.858v-5.005L225.076 43h-.728v-6.5h.858v5.005Zm10.837-6.045h-3.38v-.754h3.38v.754Zm-3.562 6.045 3.874-5.005h.728V43h-.858v-5.005L232.351 43h-.728v-6.5h.858v5.005Zm11.434-1.885 3.484 3.38h-1.144l-3.25-3.133V43h-.858v-6.5h.858v2.873l3.094-2.873h1.17l-3.354 3.12Zm8.14-3.276a3.2 3.2 0 0 1 2.366.988c.659.659.988 1.465.988 2.418 0 .953-.329 1.76-.988 2.418a3.2 3.2 0 0 1-2.366.988c-1.153 0-2.028-.477-2.626-1.43V45.6h-.858v-9.1h.858v1.274c.598-.953 1.473-1.43 2.626-1.43Zm-1.885 5.239c.494.494 1.101.741 1.82.741.719 0 1.326-.247 1.82-.741a2.546 2.546 0 0 0 .741-1.833c0-.72-.247-1.326-.741-1.82-.494-.503-1.101-.754-1.82-.754-.719 0-1.326.251-1.82.754-.494.494-.741 1.1-.741 1.82 0 .71.247 1.322.741 1.833Zm12.256-3.809V36.5h.858V43h-.858v-1.274c-.598.953-1.474 1.43-2.626 1.43a3.24 3.24 0 0 1-2.379-.988c-.65-.659-.975-1.465-.975-2.418 0-.953.325-1.76.975-2.418a3.24 3.24 0 0 1 2.379-.988c1.152 0 2.028.477 2.626 1.43Zm-4.381 3.809c.494.494 1.1.741 1.82.741.719 0 1.326-.247 1.82-.741a2.546 2.546 0 0 0 .741-1.833c0-.72-.247-1.326-.741-1.82-.494-.503-1.101-.754-1.82-.754-.72 0-1.326.251-1.82.754-.494.494-.741 1.1-.741 1.82 0 .71.247 1.322.741 1.833Zm11.475-6.123h-3.38v-.754h3.38v.754Zm-3.562 6.045 3.874-5.005h.728V43h-.858v-5.005L265.828 43h-.728v-6.5h.858v5.005Zm11.227-2.106h-4.68v-.832h4.68v.832Zm5.324-5.499h3.25c.814 0 1.495.273 2.041.819.546.546.819 1.226.819 2.041s-.273 1.495-.819 2.041c-.546.546-1.227.819-2.041.819h-2.34V43h-.91v-9.1Zm.91 4.862h2.34c.563 0 1.027-.186 1.391-.559.372-.373.559-.854.559-1.443 0-.58-.187-1.057-.559-1.43-.364-.381-.828-.572-1.391-.572h-2.34v4.004Zm11.554 3.419c-.667.65-1.473.975-2.418.975-.962 0-1.772-.325-2.431-.975-.658-.659-.988-1.469-.988-2.431s.33-1.768.988-2.418c.659-.659 1.469-.988 2.431-.988.954 0 1.76.33 2.418.988.668.65 1.001 1.456 1.001 2.418 0 .953-.333 1.764-1.001 2.431Zm-4.238-.598c.494.494 1.101.741 1.82.741.72 0 1.326-.247 1.82-.741a2.546 2.546 0 0 0 .741-1.833c0-.72-.247-1.326-.741-1.82-.494-.503-1.1-.754-1.82-.754-.719 0-1.326.251-1.82.754-.494.494-.741 1.1-.741 1.82 0 .71.247 1.322.741 1.833Zm9.704 1.573c-.979 0-1.794-.325-2.444-.975-.65-.667-.975-1.478-.975-2.431 0-.962.325-1.768.975-2.418.65-.659 1.465-.988 2.444-.988.641 0 1.218.156 1.729.468.511.303.884.715 1.118 1.235l-.702.403a1.975 1.975 0 0 0-.845-.923 2.435 2.435 0 0 0-1.3-.351c-.719 0-1.326.251-1.82.754-.494.494-.741 1.1-.741 1.82 0 .71.247 1.322.741 1.833.494.494 1.101.741 1.82.741a2.48 2.48 0 0 0 1.287-.338c.39-.225.693-.537.91-.936l.715.416c-.269.52-.663.932-1.183 1.235a3.368 3.368 0 0 1-1.729.455Zm7.109 0c-.979 0-1.794-.325-2.444-.975-.65-.667-.975-1.478-.975-2.431 0-.962.325-1.768.975-2.418.65-.659 1.465-.988 2.444-.988a3.25 3.25 0 0 1 1.729.468c.512.303.884.715 1.118 1.235l-.702.403a1.975 1.975 0 0 0-.845-.923 2.433 2.433 0 0 0-1.3-.351c-.719 0-1.326.251-1.82.754-.494.494-.741 1.1-.741 1.82 0 .71.247 1.322.741 1.833.494.494 1.101.741 1.82.741a2.48 2.48 0 0 0 1.287-.338c.39-.225.694-.537.91-.936l.715.416a3 3 0 0 1-1.183 1.235 3.368 3.368 0 0 1-1.729.455Zm5.002-1.651 3.874-5.005h.728V43h-.858v-5.005L312.42 43h-.728v-6.5h.858v5.005Zm8.458-5.005h2.639V43h-.858v-2.496h-1.118L319.669 43h-1.092l2.054-2.522c-.529-.078-.962-.295-1.3-.65a1.886 1.886 0 0 1-.494-1.313c0-.58.208-1.062.624-1.443a2.263 2.263 0 0 1 1.547-.572Zm0 3.198h1.781v-2.366h-1.781c-.373 0-.685.113-.936.338a1.061 1.061 0 0 0-.377.845c0 .347.125.633.377.858.251.217.563.325.936.325Z" fill="#BABABA"/><path fill-rule="evenodd" clip-rule="evenodd" d="M43.812 53.663c14.819 0 26.832-12.013 26.832-26.831C70.644 12.013 58.63 0 43.812 0S16.98 12.013 16.98 26.832c0 14.818 12.013 26.831 26.832 26.831Zm0-7.128c10.882 0 19.703-8.822 19.703-19.703 0-10.882-8.822-19.703-19.703-19.703-10.882 0-19.703 8.821-19.703 19.703 0 10.881 8.821 19.703 19.703 19.703Z" fill="#000"/><path d="m85.312 15.835-.187-2.962C47.975 9.766 15.672 26.82 4.082 35.791l-1.101.852.768 1.161 10.594 16.023 1.172 1.773 1.277-1.698c8.349-11.09 21.455-19.767 34.572-26.113C64.46 21.454 77.42 17.516 85.312 15.835Z" fill="#FD0000" stroke="#fff" stroke-width="3"/></svg>