<?xml version="1.0" encoding="utf-8"?><svg xmlns="http://www.w3.org/2000/svg" xmlns:xlink="http://www.w3.org/1999/xlink"><symbol viewBox="0 0 24 24" id="arrow-bottom" xmlns="http://www.w3.org/2000/svg"><g id="aHuge-icon"><g id="aarrow down"><path id="aVector 190 (Stroke)" fill-rule="evenodd" clip-rule="evenodd" d="M11.4697 18.5303C11.7626 18.8232 12.2374 18.8232 12.5303 18.5303L16.5303 14.5303C16.8232 14.2374 16.8232 13.7626 16.5303 13.4697C16.2374 13.1768 15.7626 13.1768 15.4697 13.4697L12.75 16.1893V6C12.75 5.58579 12.4142 5.25 12 5.25C11.5858 5.25 11.25 5.58579 11.25 6V16.1893L8.53033 13.4697C8.23744 13.1768 7.76256 13.1768 7.46967 13.4697C7.17678 13.7626 7.17678 14.2374 7.46967 14.5303L11.4697 18.5303Z"/></g></g></symbol><symbol viewBox="0 0 24 25" id="arrow-right" xmlns="http://www.w3.org/2000/svg"><g id="bHuge-icon"><g id="barrow right"><path id="bVector 190 (Stroke)" fill-rule="evenodd" clip-rule="evenodd" d="M18.5303 13.0303C18.8232 12.7374 18.8232 12.2626 18.5303 11.9697L14.5303 7.96967C14.2374 7.67678 13.7626 7.67678 13.4697 7.96967C13.1768 8.26256 13.1768 8.73744 13.4697 9.03033L16.1893 11.75H6C5.58579 11.75 5.25 12.0858 5.25 12.5C5.25 12.9142 5.58579 13.25 6 13.25H16.1893L13.4697 15.9697C13.1768 16.2626 13.1768 16.7374 13.4697 17.0303C13.7626 17.3232 14.2374 17.3232 14.5303 17.0303L18.5303 13.0303Z"/></g></g></symbol><symbol viewBox="0 0 24 24" id="call" xmlns="http://www.w3.org/2000/svg"><g id="cHuge-icon/communication/solid/call"><g id="ccall"><path id="cRectangle 77" d="M21 19V17.3541C21 16.5363 20.5021 15.8008 19.7428 15.4971L17.7086 14.6835C16.7429 14.2971 15.6422 14.7156 15.177 15.646L15 16C15 16 12.5 15.5 10.5 13.5C8.5 11.5 8 9 8 9L8.35402 8.82299C9.28438 8.35781 9.70285 7.25714 9.31654 6.29136L8.50289 4.25722C8.19916 3.4979 7.46374 3 6.64593 3H5C3.89543 3 3 3.89543 3 5C3 13.8366 10.1634 21 19 21C20.1046 21 21 20.1046 21 19Z"/></g></g></symbol><symbol viewBox="0 0 24 24" id="email" xmlns="http://www.w3.org/2000/svg"><g id="dHuge-icon"><g id="dchat"><path id="dSubtract" fill-rule="evenodd" clip-rule="evenodd" d="M11 3H13C17.9706 3 22 7.02944 22 12C22 16.9706 17.9706 21 13 21H6C3.79086 21 2 19.2091 2 17V12C2 7.02944 6.02944 3 11 3ZM8 14.75C7.58579 14.75 7.25 14.4142 7.25 14C7.25 13.5858 7.58579 13.25 8 13.25H12C12.4142 13.25 12.75 13.5858 12.75 14C12.75 14.4142 12.4142 14.75 12 14.75H8ZM8 10.75C7.58579 10.75 7.25 10.4142 7.25 10C7.25 9.58579 7.58579 9.25 8 9.25H16C16.4142 9.25 16.75 9.58579 16.75 10C16.75 10.4142 16.4142 10.75 16 10.75H8Z"/></g></g></symbol><symbol viewBox="0 0 24 24" id="place" xmlns="http://www.w3.org/2000/svg"><g id="eHuge-icon"><path id="eSubtract" fill-rule="evenodd" clip-rule="evenodd" d="M12 22C15.375 22 21 15.7981 21 10.8889C21 5.97969 16.9706 2 12 2C7.02944 2 3 5.97969 3 10.8889C3 15.7981 8.625 22 12 22ZM12 14C13.6569 14 15 12.6569 15 11C15 9.34315 13.6569 8 12 8C10.3431 8 9 9.34315 9 11C9 12.6569 10.3431 14 12 14Z"/></g></symbol></svg>