<svg width="330" height="59" viewBox="0 0 330 59" fill="none" xmlns="http://www.w3.org/2000/svg">
<path d="M95.198 23V20.696C95.966 20.804 96.53 20.648 96.89 20.228C97.25 19.796 97.43 19.004 97.43 17.852V10.4H105.998V23H103.532V12.776H99.896V17.78C99.896 19.952 99.398 21.422 98.402 22.19C97.55 22.862 96.482 23.132 95.198 23ZM118.936 21.362C117.664 22.622 116.116 23.252 114.292 23.252C112.468 23.252 110.92 22.622 109.648 21.362C108.388 20.078 107.758 18.524 107.758 16.7C107.758 14.864 108.388 13.316 109.648 12.056C110.92 10.784 112.468 10.148 114.292 10.148C116.116 10.148 117.664 10.784 118.936 12.056C120.208 13.316 120.844 14.864 120.844 16.7C120.844 18.536 120.208 20.09 118.936 21.362ZM111.394 19.67C112.162 20.438 113.128 20.822 114.292 20.822C115.456 20.822 116.422 20.438 117.19 19.67C117.97 18.89 118.36 17.9 118.36 16.7C118.36 15.5 117.97 14.51 117.19 13.73C116.41 12.95 115.444 12.56 114.292 12.56C113.14 12.56 112.174 12.95 111.394 13.73C110.614 14.51 110.224 15.5 110.224 16.7C110.224 17.9 110.614 18.89 111.394 19.67ZM122.59 10.4H129.754V12.776H125.074V23H122.59V10.4ZM140.907 23H138.423V15.314L133.023 23H131.133V10.4H133.617V18.104L139.017 10.4H140.907V23ZM149.22 23.252C147.336 23.252 145.77 22.622 144.522 21.362C143.286 20.114 142.668 18.56 142.668 16.7C142.668 14.828 143.286 13.274 144.522 12.038C145.77 10.778 147.336 10.148 149.22 10.148C150.36 10.148 151.41 10.418 152.37 10.958C153.342 11.486 154.098 12.206 154.638 13.118L152.496 14.36C152.184 13.796 151.74 13.358 151.164 13.046C150.588 12.722 149.94 12.56 149.22 12.56C147.996 12.56 147.006 12.944 146.25 13.712C145.506 14.492 145.134 15.488 145.134 16.7C145.134 17.9 145.506 18.89 146.25 19.67C147.006 20.438 147.996 20.822 149.22 20.822C149.94 20.822 150.588 20.666 151.164 20.354C151.752 20.03 152.196 19.592 152.496 19.04L154.638 20.282C154.098 21.194 153.342 21.92 152.37 22.46C151.41 22.988 150.36 23.252 149.22 23.252ZM155.175 10.4H164.445V12.776H161.043V23H158.559V12.776H155.175V10.4ZM175.606 23H173.122V15.314L167.722 23H165.832V10.4H168.316V18.104L173.716 10.4H175.606V23ZM184.513 15.98V10.4H186.997V23H184.513V18.392C183.745 18.716 182.923 18.878 182.047 18.878C180.787 18.878 179.737 18.524 178.897 17.816C178.081 17.096 177.673 16.124 177.673 14.9V10.4H180.157V14.576C180.157 15.176 180.331 15.65 180.679 15.998C181.039 16.334 181.513 16.502 182.101 16.502C182.953 16.502 183.757 16.328 184.513 15.98ZM191.818 17.798V20.624H197.128V23H189.334V10.4H197.038V12.776H191.818V15.458H196.588V17.798H191.818ZM204.767 23.252C202.883 23.252 201.317 22.622 200.069 21.362C198.833 20.114 198.215 18.56 198.215 16.7C198.215 14.828 198.833 13.274 200.069 12.038C201.317 10.778 202.883 10.148 204.767 10.148C205.907 10.148 206.957 10.418 207.917 10.958C208.889 11.486 209.645 12.206 210.185 13.118L208.043 14.36C207.731 13.796 207.287 13.358 206.711 13.046C206.135 12.722 205.487 12.56 204.767 12.56C203.543 12.56 202.553 12.944 201.797 13.712C201.053 14.492 200.681 15.488 200.681 16.7C200.681 17.9 201.053 18.89 201.797 19.67C202.553 20.438 203.543 20.822 204.767 20.822C205.487 20.822 206.135 20.666 206.711 20.354C207.299 20.03 207.743 19.592 208.043 19.04L210.185 20.282C209.645 21.194 208.889 21.92 207.917 22.46C206.957 22.988 205.907 23.252 204.767 23.252ZM216.715 16.52L221.557 23H218.695L214.195 17.096V23H211.711V10.4H214.195V15.962L218.515 10.4H221.377L216.715 16.52ZM232.559 23H230.075V15.314L224.675 23H222.785V10.4H225.269V18.104L230.669 10.4H232.559V23ZM237.381 17.798V20.624H242.691V23H234.897V10.4H242.601V12.776H237.381V15.458H242.151V17.798H237.381Z" fill="black"/>
<path d="M248.941 10.4H253.639C254.839 10.4 255.859 10.808 256.699 11.624C257.527 12.44 257.941 13.442 257.941 14.63C257.941 15.818 257.527 16.82 256.699 17.636C255.859 18.452 254.839 18.86 253.639 18.86H251.425V23H248.941V10.4ZM251.425 16.538H253.639C254.167 16.538 254.605 16.358 254.953 15.998C255.301 15.626 255.475 15.17 255.475 14.63C255.475 14.078 255.301 13.622 254.953 13.262C254.605 12.902 254.167 12.722 253.639 12.722H251.425V16.538ZM262.043 17.798V20.624H267.353V23H259.559V10.4H267.263V12.776H262.043V15.458H266.813V17.798H262.043ZM281.254 20.624V10.4H283.738V23H269.104V10.4H271.588V20.624H275.188V10.4H277.654V20.624H281.254ZM288.568 17.798V20.624H293.878V23H286.084V10.4H293.788V12.776H288.568V15.458H293.338V17.798H288.568ZM302.793 15.404V10.4H305.259V23H302.793V17.78H298.113V23H295.629V10.4H298.113V15.404H302.793ZM317.374 23H314.89V15.314L309.49 23H307.6V10.4H310.084V18.104L315.484 10.4H317.374V23ZM323.563 10.4H328.603V23H326.119V18.626H324.697L321.799 23H319.009L322.087 18.356C321.283 18.068 320.629 17.576 320.125 16.88C319.621 16.184 319.369 15.416 319.369 14.576C319.369 13.424 319.777 12.44 320.593 11.624C321.409 10.808 322.399 10.4 323.563 10.4ZM323.563 16.448H326.119V12.722H323.563C323.095 12.722 322.693 12.902 322.357 13.262C322.021 13.622 321.853 14.06 321.853 14.576C321.853 15.092 322.021 15.536 322.357 15.908C322.693 16.268 323.095 16.448 323.563 16.448Z" fill="#FD0000"/>
<path d="M97.912 38.32L102.41 43H101.214L96.95 38.593V43H96.04V33.9H96.95V38.06L101.084 33.9H102.28L97.912 38.32ZM104.309 41.505L108.183 36.5H108.911V43H108.053V37.995L104.179 43H103.451V36.5H104.309V41.505ZM109.945 36.5H115.405V37.332H113.104V43H112.246V37.332H109.945V36.5ZM121.787 37.774V36.5H122.645V43H121.787V41.726C121.189 42.6793 120.314 43.156 119.161 43.156C118.234 43.156 117.441 42.8267 116.782 42.168C116.132 41.5093 115.807 40.7033 115.807 39.75C115.807 38.7967 116.132 37.9907 116.782 37.332C117.441 36.6733 118.234 36.344 119.161 36.344C120.314 36.344 121.189 36.8207 121.787 37.774ZM117.406 41.583C117.9 42.077 118.507 42.324 119.226 42.324C119.945 42.324 120.552 42.077 121.046 41.583C121.54 41.0717 121.787 40.4607 121.787 39.75C121.787 39.0307 121.54 38.424 121.046 37.93C120.552 37.4273 119.945 37.176 119.226 37.176C118.507 37.176 117.9 37.4273 117.406 37.93C116.912 38.424 116.665 39.0307 116.665 39.75C116.665 40.4607 116.912 41.0717 117.406 41.583ZM128.882 35.46H125.502V34.706H128.882V35.46ZM125.32 41.505L129.194 36.5H129.922V43H129.064V37.995L125.19 43H124.462V36.5H125.32V41.505ZM139.796 39.399H135.116V38.567H139.796V39.399ZM149.319 38.294C149.822 38.4847 150.212 38.775 150.489 39.165C150.766 39.555 150.905 40.0143 150.905 40.543C150.905 41.3057 150.619 41.934 150.047 42.428C149.484 42.9133 148.721 43.156 147.759 43.156C146.927 43.156 146.247 42.9697 145.718 42.597C145.189 42.2243 144.817 41.726 144.6 41.102L145.38 40.66C145.501 41.154 145.757 41.5527 146.147 41.856C146.537 42.1507 147.074 42.298 147.759 42.298C148.452 42.298 148.998 42.1377 149.397 41.817C149.796 41.4963 149.995 41.0717 149.995 40.543C149.995 40.0143 149.813 39.5897 149.449 39.269C149.085 38.9483 148.591 38.788 147.967 38.788H146.927V37.93H147.642C148.257 37.93 148.747 37.7783 149.111 37.475C149.475 37.163 149.657 36.7557 149.657 36.253C149.657 35.759 149.479 35.3603 149.124 35.057C148.769 34.7537 148.292 34.602 147.694 34.602C146.576 34.602 145.839 35.0787 145.484 36.032L144.73 35.59C145.233 34.3593 146.221 33.744 147.694 33.744C148.543 33.744 149.237 33.9867 149.774 34.472C150.303 34.9487 150.567 35.5467 150.567 36.266C150.567 37.176 150.151 37.852 149.319 38.294ZM157.931 37.774V36.5H158.789V43H157.931V41.726C157.333 42.6793 156.457 43.156 155.305 43.156C154.377 43.156 153.584 42.8267 152.926 42.168C152.276 41.5093 151.951 40.7033 151.951 39.75C151.951 38.7967 152.276 37.9907 152.926 37.332C153.584 36.6733 154.377 36.344 155.305 36.344C156.457 36.344 157.333 36.8207 157.931 37.774ZM153.55 41.583C154.044 42.077 154.65 42.324 155.37 42.324C156.089 42.324 156.696 42.077 157.19 41.583C157.684 41.0717 157.931 40.4607 157.931 39.75C157.931 39.0307 157.684 38.424 157.19 37.93C156.696 37.4273 156.089 37.176 155.37 37.176C154.65 37.176 154.044 37.4273 153.55 37.93C153.056 38.424 152.809 39.0307 152.809 39.75C152.809 40.4607 153.056 41.0717 153.55 41.583ZM163.491 43.156C162.564 43.156 161.784 42.8483 161.151 42.233C160.527 41.609 160.215 40.803 160.215 39.815C160.215 38.7057 160.38 37.8563 160.709 37.267C161.039 36.669 161.706 36.1273 162.711 35.642C163.032 35.4947 163.283 35.382 163.465 35.304C163.769 35.1827 164.007 35.0787 164.18 34.992C164.934 34.6453 165.316 34.2163 165.324 33.705L166 34.095C165.957 34.3117 165.888 34.5067 165.792 34.68C165.68 34.8707 165.567 35.0223 165.454 35.135C165.35 35.2477 165.186 35.369 164.96 35.499C164.813 35.5857 164.635 35.681 164.427 35.785L163.777 36.058L163.166 36.318C162.568 36.578 162.122 36.851 161.827 37.137C161.541 37.4143 161.338 37.7783 161.216 38.229C161.494 37.8563 161.858 37.5747 162.308 37.384C162.759 37.1847 163.214 37.085 163.673 37.085C164.54 37.085 165.255 37.371 165.818 37.943C166.39 38.5063 166.676 39.23 166.676 40.114C166.676 40.9893 166.373 41.7173 165.766 42.298C165.168 42.87 164.41 43.156 163.491 43.156ZM161.801 41.661C162.252 42.0857 162.815 42.298 163.491 42.298C164.167 42.298 164.722 42.0943 165.155 41.687C165.597 41.271 165.818 40.7467 165.818 40.114C165.818 39.4727 165.61 38.9483 165.194 38.541C164.787 38.125 164.241 37.917 163.556 37.917C162.941 37.917 162.382 38.112 161.879 38.502C161.377 38.8747 161.125 39.386 161.125 40.036C161.125 40.6947 161.351 41.2363 161.801 41.661ZM173.571 37.774V36.5H174.429V43H173.571V41.726C172.973 42.6793 172.098 43.156 170.945 43.156C170.018 43.156 169.225 42.8267 168.566 42.168C167.916 41.5093 167.591 40.7033 167.591 39.75C167.591 38.7967 167.916 37.9907 168.566 37.332C169.225 36.6733 170.018 36.344 170.945 36.344C172.098 36.344 172.973 36.8207 173.571 37.774ZM169.19 41.583C169.684 42.077 170.291 42.324 171.01 42.324C171.73 42.324 172.336 42.077 172.83 41.583C173.324 41.0717 173.571 40.4607 173.571 39.75C173.571 39.0307 173.324 38.424 172.83 37.93C172.336 37.4273 171.73 37.176 171.01 37.176C170.291 37.176 169.684 37.4273 169.19 37.93C168.696 38.424 168.449 39.0307 168.449 39.75C168.449 40.4607 168.696 41.0717 169.19 41.583ZM180.666 35.46H177.286V34.706H180.666V35.46ZM177.104 41.505L180.978 36.5H181.706V43H180.848V37.995L176.974 43H176.246V36.5H177.104V41.505ZM185.288 39.62L188.772 43H187.628L184.378 39.867V43H183.52V36.5H184.378V39.373L187.472 36.5H188.642L185.288 39.62ZM194.887 37.774V36.5H195.745V43H194.887V41.726C194.289 42.6793 193.413 43.156 192.261 43.156C191.333 43.156 190.54 42.8267 189.882 42.168C189.232 41.5093 188.907 40.7033 188.907 39.75C188.907 38.7967 189.232 37.9907 189.882 37.332C190.54 36.6733 191.333 36.344 192.261 36.344C193.413 36.344 194.289 36.8207 194.887 37.774ZM190.506 41.583C191 42.077 191.606 42.324 192.326 42.324C193.045 42.324 193.652 42.077 194.146 41.583C194.64 41.0717 194.887 40.4607 194.887 39.75C194.887 39.0307 194.64 38.424 194.146 37.93C193.652 37.4273 193.045 37.176 192.326 37.176C191.606 37.176 191 37.4273 190.506 37.93C190.012 38.424 189.765 39.0307 189.765 39.75C189.765 40.4607 190.012 41.0717 190.506 41.583ZM198.237 36.5H202.891V43H202.033V37.332H199.095V40.231C199.095 41.3143 198.887 42.0597 198.471 42.467C198.064 42.8743 197.501 43.052 196.781 43V42.194C197.284 42.246 197.652 42.1247 197.886 41.83C198.12 41.5353 198.237 41.0023 198.237 40.231V36.5ZM205.567 38.97H207.348C207.946 38.97 208.457 39.1607 208.882 39.542C209.306 39.9147 209.519 40.3957 209.519 40.985C209.519 41.583 209.306 42.0683 208.882 42.441C208.474 42.8137 207.963 43 207.348 43H204.709V36.5H205.567V38.97ZM205.567 42.168H207.348C207.72 42.168 208.032 42.0597 208.284 41.843C208.535 41.6177 208.661 41.3317 208.661 40.985C208.661 40.6383 208.535 40.3567 208.284 40.14C208.032 39.9147 207.72 39.802 207.348 39.802H205.567V42.168ZM213.781 43.156C212.801 43.156 211.987 42.831 211.337 42.181C210.687 41.5137 210.362 40.7033 210.362 39.75C210.362 38.788 210.687 37.982 211.337 37.332C211.987 36.6733 212.801 36.344 213.781 36.344C214.422 36.344 214.998 36.5 215.51 36.812C216.021 37.1153 216.394 37.527 216.628 38.047L215.926 38.45C215.752 38.06 215.471 37.7523 215.081 37.527C214.699 37.293 214.266 37.176 213.781 37.176C213.061 37.176 212.455 37.4273 211.961 37.93C211.467 38.424 211.22 39.0307 211.22 39.75C211.22 40.4607 211.467 41.0717 211.961 41.583C212.455 42.077 213.061 42.324 213.781 42.324C214.257 42.324 214.686 42.2113 215.068 41.986C215.458 41.7607 215.761 41.4487 215.978 41.05L216.693 41.466C216.424 41.986 216.03 42.3977 215.51 42.701C214.99 43.0043 214.413 43.156 213.781 43.156ZM219.693 39.62L223.177 43H222.033L218.783 39.867V43H217.925V36.5H218.783V39.373L221.877 36.5H223.047L219.693 39.62ZM225.206 41.505L229.08 36.5H229.808V43H228.95V37.995L225.076 43H224.348V36.5H225.206V41.505ZM236.043 35.46H232.663V34.706H236.043V35.46ZM232.481 41.505L236.355 36.5H237.083V43H236.225V37.995L232.351 43H231.623V36.5H232.481V41.505ZM243.915 39.62L247.399 43H246.255L243.005 39.867V43H242.147V36.5H243.005V39.373L246.099 36.5H247.269L243.915 39.62ZM252.055 36.344C252.982 36.344 253.771 36.6733 254.421 37.332C255.08 37.9907 255.409 38.7967 255.409 39.75C255.409 40.7033 255.08 41.5093 254.421 42.168C253.771 42.8267 252.982 43.156 252.055 43.156C250.902 43.156 250.027 42.6793 249.429 41.726V45.6H248.571V36.5H249.429V37.774C250.027 36.8207 250.902 36.344 252.055 36.344ZM250.17 41.583C250.664 42.077 251.271 42.324 251.99 42.324C252.709 42.324 253.316 42.077 253.81 41.583C254.304 41.0717 254.551 40.4607 254.551 39.75C254.551 39.0307 254.304 38.424 253.81 37.93C253.316 37.4273 252.709 37.176 251.99 37.176C251.271 37.176 250.664 37.4273 250.17 37.93C249.676 38.424 249.429 39.0307 249.429 39.75C249.429 40.4607 249.676 41.0717 250.17 41.583ZM262.426 37.774V36.5H263.284V43H262.426V41.726C261.828 42.6793 260.952 43.156 259.8 43.156C258.872 43.156 258.079 42.8267 257.421 42.168C256.771 41.5093 256.446 40.7033 256.446 39.75C256.446 38.7967 256.771 37.9907 257.421 37.332C258.079 36.6733 258.872 36.344 259.8 36.344C260.952 36.344 261.828 36.8207 262.426 37.774ZM258.045 41.583C258.539 42.077 259.145 42.324 259.865 42.324C260.584 42.324 261.191 42.077 261.685 41.583C262.179 41.0717 262.426 40.4607 262.426 39.75C262.426 39.0307 262.179 38.424 261.685 37.93C261.191 37.4273 260.584 37.176 259.865 37.176C259.145 37.176 258.539 37.4273 258.045 37.93C257.551 38.424 257.304 39.0307 257.304 39.75C257.304 40.4607 257.551 41.0717 258.045 41.583ZM269.52 35.46H266.14V34.706H269.52V35.46ZM265.958 41.505L269.832 36.5H270.56V43H269.702V37.995L265.828 43H265.1V36.5H265.958V41.505ZM277.185 39.399H272.505V38.567H277.185V39.399ZM282.509 33.9H285.759C286.573 33.9 287.254 34.173 287.8 34.719C288.346 35.265 288.619 35.9453 288.619 36.76C288.619 37.5747 288.346 38.255 287.8 38.801C287.254 39.347 286.573 39.62 285.759 39.62H283.419V43H282.509V33.9ZM283.419 38.762H285.759C286.322 38.762 286.786 38.5757 287.15 38.203C287.522 37.8303 287.709 37.3493 287.709 36.76C287.709 36.1793 287.522 35.7027 287.15 35.33C286.786 34.9487 286.322 34.758 285.759 34.758H283.419V38.762ZM294.973 42.181C294.306 42.831 293.5 43.156 292.555 43.156C291.593 43.156 290.783 42.831 290.124 42.181C289.466 41.5223 289.136 40.712 289.136 39.75C289.136 38.788 289.466 37.982 290.124 37.332C290.783 36.6733 291.593 36.344 292.555 36.344C293.509 36.344 294.315 36.6733 294.973 37.332C295.641 37.982 295.974 38.788 295.974 39.75C295.974 40.7033 295.641 41.5137 294.973 42.181ZM290.735 41.583C291.229 42.077 291.836 42.324 292.555 42.324C293.275 42.324 293.881 42.077 294.375 41.583C294.869 41.0717 295.116 40.4607 295.116 39.75C295.116 39.0307 294.869 38.424 294.375 37.93C293.881 37.4273 293.275 37.176 292.555 37.176C291.836 37.176 291.229 37.4273 290.735 37.93C290.241 38.424 289.994 39.0307 289.994 39.75C289.994 40.4607 290.241 41.0717 290.735 41.583ZM300.439 43.156C299.46 43.156 298.645 42.831 297.995 42.181C297.345 41.5137 297.02 40.7033 297.02 39.75C297.02 38.788 297.345 37.982 297.995 37.332C298.645 36.6733 299.46 36.344 300.439 36.344C301.08 36.344 301.657 36.5 302.168 36.812C302.679 37.1153 303.052 37.527 303.286 38.047L302.584 38.45C302.411 38.06 302.129 37.7523 301.739 37.527C301.358 37.293 300.924 37.176 300.439 37.176C299.72 37.176 299.113 37.4273 298.619 37.93C298.125 38.424 297.878 39.0307 297.878 39.75C297.878 40.4607 298.125 41.0717 298.619 41.583C299.113 42.077 299.72 42.324 300.439 42.324C300.916 42.324 301.345 42.2113 301.726 41.986C302.116 41.7607 302.419 41.4487 302.636 41.05L303.351 41.466C303.082 41.986 302.688 42.3977 302.168 42.701C301.648 43.0043 301.072 43.156 300.439 43.156ZM307.548 43.156C306.569 43.156 305.754 42.831 305.104 42.181C304.454 41.5137 304.129 40.7033 304.129 39.75C304.129 38.788 304.454 37.982 305.104 37.332C305.754 36.6733 306.569 36.344 307.548 36.344C308.19 36.344 308.766 36.5 309.277 36.812C309.789 37.1153 310.161 37.527 310.395 38.047L309.693 38.45C309.52 38.06 309.238 37.7523 308.848 37.527C308.467 37.293 308.034 37.176 307.548 37.176C306.829 37.176 306.222 37.4273 305.728 37.93C305.234 38.424 304.987 39.0307 304.987 39.75C304.987 40.4607 305.234 41.0717 305.728 41.583C306.222 42.077 306.829 42.324 307.548 42.324C308.025 42.324 308.454 42.2113 308.835 41.986C309.225 41.7607 309.529 41.4487 309.745 41.05L310.46 41.466C310.192 41.986 309.797 42.3977 309.277 42.701C308.757 43.0043 308.181 43.156 307.548 43.156ZM312.55 41.505L316.424 36.5H317.152V43H316.294V37.995L312.42 43H311.692V36.5H312.55V41.505ZM321.008 36.5H323.647V43H322.789V40.504H321.671L319.669 43H318.577L320.631 40.478C320.102 40.4 319.669 40.1833 319.331 39.828C319.001 39.464 318.837 39.0263 318.837 38.515C318.837 37.9343 319.045 37.4533 319.461 37.072C319.894 36.6907 320.41 36.5 321.008 36.5ZM321.008 39.698H322.789V37.332H321.008C320.635 37.332 320.323 37.4447 320.072 37.67C319.82 37.8867 319.695 38.1683 319.695 38.515C319.695 38.8617 319.82 39.1477 320.072 39.373C320.323 39.5897 320.635 39.698 321.008 39.698Z" fill="#BABABA"/>
<path fill-rule="evenodd" clip-rule="evenodd" d="M43.8119 53.6634C58.6306 53.6634 70.6436 41.6504 70.6436 26.8317C70.6436 12.013 58.6306 0 43.8119 0C28.9931 0 16.9802 12.013 16.9802 26.8317C16.9802 41.6504 28.9931 53.6634 43.8119 53.6634ZM43.8119 46.5347C54.6935 46.5347 63.5148 37.7133 63.5148 26.8317C63.5148 15.95 54.6935 7.12871 43.8119 7.12871C32.9302 7.12871 24.1089 15.95 24.1089 26.8317C24.1089 37.7133 32.9302 46.5347 43.8119 46.5347Z" fill="black"/>
<path d="M85.3123 15.835L85.125 12.8731C47.9751 9.76629 15.672 26.8187 4.08179 35.7909L2.98097 36.6431L3.74876 37.8043L14.3428 53.8273L15.5146 55.5996L16.7924 53.9021C25.1406 42.8126 38.2469 34.1345 51.3636 27.7895C64.4609 21.4538 77.42 17.5153 85.3123 15.835Z" fill="#FD0000" stroke="white" stroke-width="3"/>
</svg>
